<?xml version="1.0" encoding="UTF-8"?>
<svg id="Capa_1" data-name="Capa 1" xmlns="http://www.w3.org/2000/svg" xmlns:xlink="http://www.w3.org/1999/xlink" viewBox="0 0 1498.99 772.52">
  <defs>
    <style>
      .cls-1 {
        fill: #fff;
      }

      .cls-2 {
        fill: url(#Degradado_sin_nombre_9);
      }

      .cls-3 {
        fill: url(#Degradado_sin_nombre_11);
      }
    </style>
    <linearGradient id="Degradado_sin_nombre_9" data-name="Degradado sin nombre 9" x1="261.43" y1="652.67" x2="261.43" y2="119.85" gradientUnits="userSpaceOnUse">
      <stop offset="0" stop-color="#29a2db"/>
      <stop offset=".16" stop-color="#289bd4"/>
      <stop offset=".38" stop-color="#2689c4"/>
      <stop offset=".63" stop-color="#236ba8"/>
      <stop offset=".89" stop-color="#204685"/>
    </linearGradient>
    <linearGradient id="Degradado_sin_nombre_11" data-name="Degradado sin nombre 11" x1="461.5" y1="631.72" x2="461.5" y2="293.75" gradientUnits="userSpaceOnUse">
      <stop offset="0" stop-color="#f28e20"/>
      <stop offset=".33" stop-color="#f18920"/>
      <stop offset=".66" stop-color="#ef7d22"/>
      <stop offset="1" stop-color="#ed6924"/>
      <stop offset="1" stop-color="#ed6925"/>
    </linearGradient>
  </defs>
  <g>
    <path class="cls-2" d="M280.29,425.43c-105.32,125.09-217.21,209.4-217.21,209.4l319.27,17.84s14.86-15.39,29.6-33.81l-77.04-13.21s78.5-83.35,103.45-145.82c14.76-36.99,20.18-76.19,21.44-110-6.35-110.6-19.8-229.98-19.8-229.98,0,0-54.38,180.48-159.71,305.58"/>
    <path class="cls-3" d="M449.89,463.71c-20.39,52.65-90.23,132.4-90.23,132.4l189.46,35.6s30.28-91.01,2.51-176.52c-27.79-85.48-84.76-161.45-84.76-161.45,0,0,13.13,92.33-16.97,169.97"/>
  </g>
  <g>
    <path class="cls-1" d="M1416.4,478.55c0,22.13-14.12,38.87-34.35,38.87s-34.51-16.75-34.51-38.87,14.13-38.87,34.51-38.87,34.35,16.59,34.35,38.87M1435.91,478.55c0-31.74-22.56-55.18-53.42-55.18s-54.45,23.45-54.45,55.18,22.56,55.03,53.43,55.03,54.44-23.45,54.44-55.03M1292.52,477.53c0,22.56-12.39,39.03-39.75,39.03-6.99,0-10.78-.16-15.3-.88v-74.4c3.79-.58,8.46-.87,13.7-.87,27.07,0,41.34,15,41.34,37.12M1312.02,477.53c0-28.83-20.82-53.13-63.04-53.13-10.61,0-19.36.57-29.69,1.73v104.83c10.77,1.02,19.08,1.75,30.71,1.75,42.24,0,62.02-25.19,62.02-55.18M1196,533.44v-108.33h-18.2v67.42l-65.95-69.46-2.9.6v108.16h18.19v-68.42l66.83,70.45,2.04-.42ZM1062.2,492.96h-30.29l15.16-35.67,15.14,35.67ZM1097.73,531.83l-49.06-108.16h-2.62l-49.23,108.16h18.79l10.35-24.47h42.21l10.35,24.47h19.21ZM985.61,533.44v-108.33h-18.19v67.42l-65.94-69.46-2.92.6v108.16h18.2v-68.42l66.81,70.45,2.03-.42ZM859.11,458.9c0,12.24-8.02,19.65-23.88,19.65-3.51,0-7.15-.14-10.5-.58v-36.39c3.64-.74,7.87-.88,12.23-.88,13.99,0,22.14,7.43,22.14,18.2M885.45,531.83l-27.95-42.94c13.25-5.83,20.82-17.03,20.82-30.86,0-18.93-13.39-33.62-43.68-33.62-10.77,0-19.64.71-28.1,1.73v105.69h18.2v-38.59c3.5.16,7.14.3,10.65.3,2.02,0,3.77,0,5.66-.14l23.29,38.43h21.12ZM785,531.83v-16.59h-46.88v-29.55h42.38v-16.02h-42.38v-27.96h46.88v-16.61h-65.07v106.72h65.07ZM704.21,441.72v-16.61h-65.09v106.72h18.2v-42.8h41.2v-16.17h-41.2v-31.15h46.89Z"/>
    <path class="cls-1" d="M902.94,370.38v-108.32h-18.22v67.4l-65.94-69.45-2.91.6v108.16h18.2v-68.44l66.81,70.48,2.05-.44ZM769.13,329.91h-30.27l15.14-35.66,15.14,35.66ZM804.65,368.78l-49.06-108.16h-2.62l-49.21,108.16h18.78l10.34-24.46h42.2l10.35,24.46h19.21ZM699.84,338.63c0-13.96-6.12-22.56-27.23-31.74-13.26-5.82-18.49-10.04-18.49-17.18s5.24-13.24,16.45-13.24c7.28,0,15.72,3.63,21.41,7.56l5.8-16.01c-6.24-4.21-16.44-7.73-26.77-7.73-22.28,0-35.09,14.44-35.09,29.86,0,12.81,6.7,22.42,25.33,30.29,16.9,7.12,20.1,11.78,20.1,19.21s-4.95,13.98-16.16,13.98c-9.16,0-19.36-3.79-27.8-9.9l-6.26,16.31c9.32,6.11,21.41,10.49,33.49,10.49,21.98,0,35.23-14.73,35.23-31.9"/>
    <path class="cls-1" d="M1082.7,614.91c0,11.52-7.36,20.23-17.88,20.23s-17.94-8.7-17.94-20.23,7.34-20.21,17.94-20.21,17.88,8.63,17.88,20.21M1092.82,614.91c0-16.48-11.72-28.69-27.77-28.69s-28.31,12.21-28.31,28.69,11.73,28.62,27.79,28.62,28.3-12.18,28.3-28.62M1018.56,587.14h-9.45v55.47h9.45v-55.47ZM983.06,605.75c0,6.29-3.94,10.75-12.48,10.75-1.68,0-3.42-.14-5.3-.28v-20.31c1.97-.31,4.09-.45,6.2-.45,7.73,0,11.59,4.84,11.59,10.29M992.9,605.45c0-10.38-7.79-18.69-23.02-18.69-4.55,0-9.16.3-14.06.91v54.95h9.45v-18.09c1.81.07,3.7.23,5.54.23,14.14,0,22.09-8.02,22.09-19.31M935.74,587.14h-9.45v55.47h9.45v-55.47ZM910,638.32l-2.88-8.03c-4.46,2.64-10.21,4.39-15.14,4.39-12.18,0-19.83-8.09-19.83-19.77s7.42-19.84,19.62-19.84c4.92,0,10.37,1.75,14.76,4.25l3.26-8.02c-4.7-2.88-10.98-5.08-17.87-5.08-17.41,0-29.89,12.27-29.89,28.69s12.32,28.62,29.89,28.62c6.89,0,13.47-2.27,18.09-5.2M843.84,587.14h-9.45v55.47h9.45v-55.47ZM814.31,643.45v-56.3h-9.45v35.05l-34.31-36.11-1.51.29v56.24h9.45v-35.56l34.76,36.62,1.06-.23ZM750.04,621.37v-34.23h-9.45v33.53c0,9.47-4.77,14.23-12.72,14.23s-12.72-4.7-12.72-14.23v-33.53h-9.45v34.23c0,14.36,8.18,22.16,22.01,22.16s22.34-8.02,22.34-22.16M687.37,642.61l-2.35-56.16-1.51-.14-24.01,36.77-24.6-36.77-1.45.14-2.33,56.16h9.29l.61-33.31,17.63,26.58h1.15l17.49-26.49.76,33.22h9.31Z"/>
  </g>
</svg>